<?xml version="1.0" encoding="utf-8"?>
<!-- Generator: Adobe Illustrator 19.1.0, SVG Export Plug-In . SVG Version: 6.00 Build 0)  -->
<!DOCTYPE svg PUBLIC "-//W3C//DTD SVG 1.1//EN" "http://www.w3.org/Graphics/SVG/1.1/DTD/svg11.dtd">
<svg version="1.1" id="Layer_1" xmlns="http://www.w3.org/2000/svg" xmlns:xlink="http://www.w3.org/1999/xlink" x="0px" y="0px"
	 viewBox="0 0 150 150" style="enable-background:new 0 0 150 150;" xml:space="preserve">
<style type="text/css">
	.st0{fill:#E81311;}
	.st1{fill:#EE8412;}
	.st2{opacity:0.3;}
	.st3{fill:#FFFFFF;}
	.st4{opacity:0.25;}
	.st5{clip-path:url(#SVGID_4_);}
	.st6{clip-path:url(#SVGID_6_);}
	.st7{fill:#55748B;}
	.st8{fill:#CCCCCC;}
	.st9{clip-path:url(#SVGID_10_);}
	.st10{clip-path:url(#SVGID_12_);}
	.st11{clip-path:url(#SVGID_14_);}
	.st12{fill:#FA0000;}
	.st13{clip-path:url(#SVGID_18_);}
	.st14{clip-path:url(#SVGID_20_);}
	.st15{clip-path:url(#SVGID_22_);}
	.st16{fill:#033F85;}
	.st17{clip-path:url(#SVGID_26_);}
	.st18{clip-path:url(#SVGID_28_);}
	.st19{fill:#8689C0;}
	.st20{clip-path:url(#SVGID_32_);}
	.st21{clip-path:url(#SVGID_34_);}
	.st22{fill:#A1BA12;}
	.st23{clip-path:url(#SVGID_38_);}
	.st24{clip-path:url(#SVGID_40_);}
	.st25{fill:#F15A24;}
	.st26{fill:none;stroke:#FFFFFF;stroke-miterlimit:10;}
	.st27{fill:#7BBDA5;}
	.st28{fill:#0071BC;}
	.st29{fill:#023348;}
	.st30{fill:#78272D;}
	.st31{fill:none;stroke:#FFFFFF;stroke-width:1.2;stroke-miterlimit:10;}
	.st32{clip-path:url(#SVGID_50_);}
	.st33{clip-path:url(#SVGID_52_);}
	.st34{font-family:'Gotham-Bold';}
	.st35{font-size:12px;}
	.st36{fill:#FFFFFF;stroke:#FFFFFF;stroke-width:2.1092;stroke-miterlimit:10;}
	.st37{fill:none;stroke:#FFFFFF;stroke-width:0.7854;stroke-miterlimit:10;}
	.st38{fill:#F7931E;}
	.st39{opacity:0.25;clip-path:url(#SVGID_60_);}
	.st40{fill:#8CC63F;}
	.st41{opacity:0.25;clip-path:url(#SVGID_64_);}
</style>
<g>
	<path class="st8" d="M146.8,136.8c0,5.5-4.5,10-10,10H13.2c-5.5,0-10-4.5-10-10V13.2c0-5.5,4.5-10,10-10h123.6c5.5,0,10,4.5,10,10
		V136.8z"/>
</g>
<g>
	<path class="st3" d="M113.3,86.3c0,1.4-0.5,2.5-1.5,3.5s-2.1,1.5-3.5,1.5c-1.4,0-2.6-0.5-3.5-1.5L91.5,76.6
		c-4.6,3.2-9.8,4.8-15.5,4.8c-3.7,0-7.2-0.7-10.6-2.2c-3.4-1.4-6.3-3.4-8.7-5.8s-4.4-5.4-5.8-8.7c-1.4-3.4-2.2-6.9-2.2-10.6
		c0-3.7,0.7-7.2,2.2-10.6c1.4-3.4,3.4-6.3,5.8-8.7s5.4-4.4,8.7-5.8c3.4-1.4,6.9-2.2,10.6-2.2c3.7,0,7.2,0.7,10.6,2.2
		c3.4,1.4,6.3,3.4,8.7,5.8s4.4,5.4,5.8,8.7c1.4,3.4,2.2,6.9,2.2,10.6c0,5.7-1.6,10.9-4.8,15.5l13.3,13.3
		C112.8,83.8,113.3,85,113.3,86.3z M88.3,66.3c3.4-3.4,5.1-7.5,5.1-12.3c0-4.8-1.7-8.9-5.1-12.3c-3.4-3.4-7.5-5.1-12.3-5.1
		c-4.8,0-8.9,1.7-12.3,5.1c-3.4,3.4-5.1,7.5-5.1,12.3c0,4.8,1.7,8.9,5.1,12.3c3.4,3.4,7.5,5.1,12.3,5.1
		C80.8,71.4,84.9,69.7,88.3,66.3z M88.5,52.8v2.5c0,0.3-0.1,0.6-0.4,0.9c-0.2,0.2-0.5,0.4-0.9,0.4h-8.7v8.7c0,0.3-0.1,0.6-0.4,0.9
		c-0.2,0.2-0.5,0.4-0.9,0.4h-2.5c-0.3,0-0.6-0.1-0.9-0.4c-0.2-0.2-0.4-0.5-0.4-0.9v-8.7h-8.7c-0.3,0-0.6-0.1-0.9-0.4
		c-0.2-0.2-0.4-0.5-0.4-0.9v-2.5c0-0.3,0.1-0.6,0.4-0.9s0.5-0.4,0.9-0.4h8.7v-8.7c0-0.3,0.1-0.6,0.4-0.9c0.2-0.2,0.5-0.4,0.9-0.4
		h2.5c0.3,0,0.6,0.1,0.9,0.4c0.2,0.2,0.4,0.5,0.4,0.9v8.7h8.7c0.3,0,0.6,0.1,0.9,0.4C88.3,52.2,88.5,52.5,88.5,52.8z"/>
</g>
<text transform="matrix(1 0 0 1 54.2576 116.2095)"><tspan x="0" y="0" class="st3 st34 st35">Search</tspan><tspan x="-6.5" y="14.4" class="st3 st34 st35">Products</tspan></text>
</svg>
